<svg width="24" height="16" viewBox="0 0 24 16" fill="none" xmlns="http://www.w3.org/2000/svg">
  <rect width="24" height="16" rx="2" fill="#1A1F71"/>
  <path d="M8.5 5.5L6.5 10.5H8L9.5 7L11 10.5H12.5L10.5 5.5H8.5Z" fill="white"/>
  <path d="M14 5.5C13.2 5.5 12.5 6.2 12.5 7C12.5 7.8 13.2 8.5 14 8.5C14.8 8.5 15.5 7.8 15.5 7C15.5 6.2 14.8 5.5 14 5.5Z" fill="white"/>
  <path d="M16 5.5H17.5V10.5H16V5.5Z" fill="white"/>
  <path d="M19 5.5C18.2 5.5 17.5 6.2 17.5 7C17.5 7.8 18.2 8.5 19 8.5C19.8 8.5 20.5 7.8 20.5 7C20.5 6.2 19.8 5.5 19 5.5Z" fill="white"/>
</svg>
